<svg width="50" height="42" viewBox="0 0 50 42" fill="none" xmlns="http://www.w3.org/2000/svg">
<path d="M45.8333 0H4.16667C1.89583 0.0933333 0.0833333 2.12333 0 4.66667V37.3333C0.0833333 39.8767 1.89583 41.9067 4.16667 42H45.8333C48.1042 41.9067 49.9167 39.8767 50 37.3333V4.66667C49.9617 3.44266 49.5104 2.28047 48.7371 1.41443C47.9639 0.548397 46.9262 0.042946 45.8333 0ZM45.8333 37.3333H4.16667V4.66667H45.8333V37.3333ZM29.1667 32.6667V29.75C29.1667 25.8767 22.2083 23.9167 18.75 23.9167C15.2917 23.9167 8.33333 25.8767 8.33333 29.75V32.6667H29.1667ZM18.75 9.33333C17.3687 9.33333 16.0439 9.94791 15.0672 11.0419C14.0904 12.1358 13.5417 13.6196 13.5417 15.1667C13.5417 15.9327 13.6764 16.6913 13.9381 17.399C14.1999 18.1067 14.5835 18.7498 15.0672 19.2915C16.0439 20.3854 17.3687 21 18.75 21C19.434 21 20.1112 20.8491 20.7431 20.556C21.375 20.2628 21.9492 19.8331 22.4328 19.2915C22.9165 18.7498 23.3001 18.1067 23.5619 17.399C23.8236 16.6913 23.9583 15.9327 23.9583 15.1667C23.9583 14.4006 23.8236 13.6421 23.5619 12.9343C23.3001 12.2266 22.9165 11.5836 22.4328 11.0419C21.9492 10.5002 21.375 10.0705 20.7431 9.77737C20.1112 9.48422 19.434 9.33333 18.75 9.33333ZM29.1667 9.33333V11.6667H41.6667V9.33333H29.1667ZM29.1667 14V16.3333H41.6667V14H29.1667ZM29.1667 18.6667V21H37.5V18.6667H29.1667Z" fill="#3C1A7D"/>
</svg>
